HIERARCHY
ROOT Hips
{
	OFFSET 0.00000 0.00000 0.00000
	CHANNELS 6 Xposition Yposition Zposition Zrotation Yrotation Xrotation 
	JOINT LHipJoint
	{
		OFFSET 0 0 0
		CHANNELS 3 Zrotation Yrotation Xrotation
		JOINT LeftUpLeg
		{
			OFFSET 1.35324 -1.81393 0.86676
			CHANNELS 3 Zrotation Yrotation Xrotation
			JOINT LeftLeg
			{
				OFFSET 2.44396 -6.71474 0.00000
				CHANNELS 3 Zrotation Yrotation Xrotation
				JOINT LeftFoot
				{
					OFFSET 2.78389 -7.64869 0.00000
					CHANNELS 3 Zrotation Yrotation Xrotation
					JOINT LeftToeBase
					{
						OFFSET 0.15837 -0.43512 1.94704
						CHANNELS 3 Zrotation Yrotation Xrotation
						End Site
						{
							OFFSET 0.00000 -0.00000 1.00735
						}
					}
				}
			}
		}
	}
	JOINT RHipJoint
	{
		OFFSET 0 0 0
		CHANNELS 3 Zrotation Yrotation Xrotation
		JOINT RightUpLeg
		{
			OFFSET -1.14956 -1.81393 0.86676
			CHANNELS 3 Zrotation Yrotation Xrotation
			JOINT RightLeg
			{
				OFFSET -2.55632 -7.02343 0.00000
				CHANNELS 3 Zrotation Yrotation Xrotation
				JOINT RightFoot
				{
					OFFSET -2.63038 -7.22691 0.00000
					CHANNELS 3 Zrotation Yrotation Xrotation
					JOINT RightToeBase
					{
						OFFSET -0.22277 -0.61205 2.06087
						CHANNELS 3 Zrotation Yrotation Xrotation
						End Site
						{
							OFFSET -0.00000 -0.00000 1.07867
						}
					}
				}
			}
		}
	}
	JOINT LowerBack
	{
		OFFSET 0 0 0
		CHANNELS 3 Zrotation Yrotation Xrotation
		JOINT Spine
		{
			OFFSET -0.05682 2.18266 -0.21665
			CHANNELS 3 Zrotation Yrotation Xrotation
			JOINT Spine1
			{
				OFFSET 0.08791 2.18267 0.00700
				CHANNELS 3 Zrotation Yrotation Xrotation
				JOINT Neck
				{
					OFFSET 0 0 0
					CHANNELS 3 Zrotation Yrotation Xrotation
					JOINT Neck1
					{
						OFFSET -0.14851 1.58495 0.25390
						CHANNELS 3 Zrotation Yrotation Xrotation
						JOINT Head
						{
							OFFSET 0.13566 1.62237 -0.28476
							CHANNELS 3 Zrotation Yrotation Xrotation
							End Site
							{
								OFFSET 0.05601 1.65818 -0.12921
							}
						}
					}
				}
				JOINT LeftShoulder
				{
					OFFSET 0 0 0
					CHANNELS 3 Zrotation Yrotation Xrotation
					JOINT LeftArm
					{
						OFFSET 3.23337 0.97114 -0.51072
						CHANNELS 3 Zrotation Yrotation Xrotation
						JOINT LeftForeArm
						{
							OFFSET 5.19964 -0.00068 -0.00051
							CHANNELS 3 Zrotation Yrotation Xrotation
							JOINT LeftHand
							{
								OFFSET 3.32189 -0.00000 0.00000
								CHANNELS 3 Zrotation Yrotation Xrotation
								JOINT LeftFingerBase
								{
									OFFSET 0 0 0
									CHANNELS 3 Zrotation Yrotation Xrotation
									JOINT LeftHandIndex1
									{
										OFFSET 0.64562 -0.00000 0.00000
										CHANNELS 3 Zrotation Yrotation Xrotation
										End Site
										{
											OFFSET 0.52051 -0.00000 0.00000
										}
									}
								}
								JOINT LThumb
								{
									OFFSET 0 0 0
									CHANNELS 3 Zrotation Yrotation Xrotation
									End Site
									{
										OFFSET 0.52846 -0.00000 0.52846
									}
								}
							}
						}
					}
				}
				JOINT RightShoulder
				{
					OFFSET 0 0 0
					CHANNELS 3 Zrotation Yrotation Xrotation
					JOINT RightArm
					{
						OFFSET -2.95712 1.24697 -0.52388
						CHANNELS 3 Zrotation Yrotation Xrotation
						JOINT RightForeArm
						{
							OFFSET -5.65950 -0.00000 -0.00000
							CHANNELS 3 Zrotation Yrotation Xrotation
							JOINT RightHand
							{
								OFFSET -3.37604 -0.00000 -0.00000
								CHANNELS 3 Zrotation Yrotation Xrotation
								JOINT RightFingerBase
								{
									OFFSET 0 0 0
									CHANNELS 3 Zrotation Yrotation Xrotation
									JOINT RightHandIndex1
									{
										OFFSET -0.82470 -0.00000 -0.00000
										CHANNELS 3 Zrotation Yrotation Xrotation
										End Site
										{
											OFFSET -0.66490 -0.00000 -0.00000
										}
									}
								}
								JOINT RThumb
								{
									OFFSET 0 0 0
									CHANNELS 3 Zrotation Yrotation Xrotation
									End Site
									{
										OFFSET -0.67505 -0.00000 0.67505
									}
								}
							}
						}
					}
				}
			}
		}
	}
}
MOTION
Frames: 9
Frame Time: 0.0555556
0.00 0.00 0.00 -13.6827 -21.3696 -0.4689 0.0000 0.0000 0.0000 -13.7511 -10.3611 -54.0830 9.9704 17.3931 59.3892 -0.0473 -3.9114 2.1302 1.0055 6.3807 17.8931 0.0000 0.0000 0.0000 -2.4764 3.7717 13.4869 -15.9227 -19.5967 78.0015 1.2330 -19.4050 -4.2942 -2.7187 -10.2252 29.7090 0.4162 -0.3432 15.6166 11.0126 0.3359 1.5654 11.9240 0.2946 -7.2001 -15.4295 -9.7097 -1.9988 9.5622 -15.4790 31.0128 4.3219 -7.9166 12.6278 0.0000 -0.0000 0.0000 -57.3799 20.9814 -30.3682 29.8986 -40.8063 -11.3433 -0.0000 0.0000 -8.5341 29.9215 38.6721 19.7798 -7.1250 0.0000 -0.0000 -8.3268 72.5523 -5.4577 0.0000 -0.0000 0.0000 62.9835 -4.8605 -2.5083 -42.6304 49.5533 -20.4190 0.0000 -0.0000 -8.9214 -22.9341 23.3395 -9.5160 7.1250 -0.0000 -0.0000 3.8359 -4.9238 3.5005
0.00 0.00 0.00 -3.7249 -26.9254 -10.5982 0.0000 0.0000 0.0000 -28.5580 -4.7905 -46.7392 14.2519 19.1887 72.9723 0.5047 -2.6396 -12.7741 2.2755 9.4177 27.1108 0.0000 0.0000 0.0000 -13.1767 17.6419 -25.5751 -11.9990 -18.3902 65.9858 2.1208 -25.0642 -14.2384 -4.6204 -12.9431 39.1558 -2.8137 0.6384 21.4623 9.1321 0.7094 5.8650 11.6533 0.2950 -5.7073 -15.9399 -8.7393 -1.7595 6.3554 -12.9034 30.1708 3.5702 -7.1104 11.6429 -0.0000 -0.0000 0.0000 -72.2963 2.8595 -16.2737 24.5477 -35.7381 -8.0242 -0.0000 0.0000 -13.2294 19.8692 37.8821 12.5115 -7.1250 0.0000 -0.0000 -20.8513 68.5151 -11.9598 -0.0000 -0.0000 0.0000 68.2951 -8.2641 -10.4440 -25.6780 36.8890 -8.6936 0.0000 -0.0000 -14.2369 -25.4133 19.0643 -8.8213 7.1250 -0.0000 -0.0000 1.8225 -9.0511 1.5139
0.00 0.00 0.00 -1.5351 -23.2264 -10.7966 0.0000 0.0000 0.0000 -33.6606 -5.6791 -44.1505 14.3332 19.2120 73.2195 0.7085 -4.3416 -15.0261 2.8662 10.4753 30.5299 0.0000 0.0000 0.0000 -11.9021 12.9851 -35.3286 -7.4461 -15.6963 50.5421 7.5873 -42.3948 -18.8635 -7.6001 -15.8171 51.1093 -4.6731 -1.0973 21.7240 8.9761 -1.9702 5.5532 13.3608 -1.0198 -5.5004 -15.9511 -8.0320 -2.0097 5.1124 -11.4847 30.1250 3.2923 -6.5932 11.4093 -0.0000 -0.0000 0.0000 -76.2318 -1.2744 -7.6719 22.4037 -33.4303 -6.8069 -0.0000 0.0000 -11.4184 15.9327 32.6653 8.7592 -7.1250 0.0000 -0.0000 -19.8115 62.5959 -8.6487 -0.0000 -0.0000 0.0000 68.8140 -9.6906 -7.4810 -23.5973 34.7355 -7.4759 0.0000 -0.0000 -12.4192 -22.5635 21.1323 -8.5197 7.1250 -0.0000 -0.0000 3.8482 -7.3104 3.3350
0.00 0.00 0.00 -1.5313 -22.4366 -10.3459 0.0000 0.0000 0.0000 -34.4902 -5.6793 -43.4589 14.2615 19.1914 73.0015 0.7552 -5.0092 -15.4935 3.0917 10.8420 31.7489 0.0000 0.0000 0.0000 -10.4078 11.8569 -38.7046 -6.2537 -14.6697 45.9915 11.9467 -49.7651 -27.7538 -9.2126 -16.9426 56.8225 -4.5095 -1.5300 21.4021 9.0760 -2.4936 5.4594 13.4874 -1.2898 -5.3026 -15.9122 -7.9450 -2.2530 4.8697 -11.2590 30.2207 3.2153 -6.5076 11.4497 -0.0000 -0.0000 0.0000 -77.5469 -2.7405 -4.1928 22.1011 -33.0911 -6.6409 -0.0000 0.0000 -10.1468 16.8068 29.6757 8.5050 -7.1250 0.0000 -0.0000 -16.5091 59.9797 -6.1350 -0.0000 -0.0000 0.0000 69.2246 -10.2076 -7.4059 -22.9567 34.0415 -7.1141 0.0000 -0.0000 -10.9525 -21.6004 21.8456 -8.3811 7.1250 -0.0000 -0.0000 4.5229 -6.7160 3.9756
0.00 0.00 0.00 -1.4660 -21.4670 -9.3825 0.0000 0.0000 0.0000 -36.8571 -3.5374 -41.1128 13.6464 19.0033 71.1216 0.8554 -6.4538 -16.4973 3.4078 11.3276 33.3930 0.0000 0.0000 0.0000 -1.7176 4.8552 -49.6490 -5.0377 -13.4261 40.9852 2.2932 -36.8179 -42.6734 -12.0531 -18.4130 66.1571 -4.3429 -2.3239 20.2970 9.1076 -3.5221 5.6063 13.5405 -1.8755 -4.3036 -14.4894 -7.6776 -3.3185 3.5767 -10.4972 30.1464 2.5691 -6.1171 11.3560 0.0000 0.0000 0.0000 -80.8400 -7.7489 6.6857 22.0582 -33.0428 -6.6176 -0.0000 0.0000 -6.5376 18.1819 31.2264 9.6629 -7.1250 0.0000 -0.0000 -16.1416 61.8038 -6.6952 0.0000 0.0000 0.0000 71.1917 -12.6364 -4.5340 -22.6095 33.6590 -6.9206 0.0000 -0.0000 -9.0758 -21.3277 21.2716 -8.0622 7.1250 -0.0000 -0.0000 4.6451 -7.3598 4.0254
0.00 0.00 0.00 -1.6753 -21.1848 -8.9788 0.0000 0.0000 0.0000 -37.3498 -2.5280 -40.6562 13.4928 18.9529 70.6494 0.8694 -6.9711 -16.6523 3.5523 11.5395 34.1218 0.0000 0.0000 0.0000 3.5776 0.5719 -54.2138 -4.9419 -13.3181 40.5712 4.5452 -36.6056 -28.8616 -11.4732 -18.1590 64.3089 -4.0813 -2.6094 19.9408 9.1867 -3.8470 5.6029 13.5058 -2.0555 -4.0498 -13.9729 -7.5426 -3.6020 3.0681 -10.1745 30.0210 2.3324 -5.9609 11.2628 -0.0000 -0.0000 0.0000 -82.1553 -9.3682 10.3343 22.3247 -33.3420 -6.7634 -0.0000 0.0000 -6.9812 19.0564 31.2720 10.1658 -7.1250 0.0000 -0.0000 -15.2011 62.0680 -6.3898 -0.0000 -0.0000 0.0000 71.9387 -13.2536 -4.3765 -22.3429 33.3624 -6.7735 0.0000 -0.0000 -8.0457 -21.2723 21.3462 -8.0660 7.1250 -0.0000 -0.0000 4.6866 -7.2904 4.0680
0.00 0.00 0.00 -1.5670 -20.8759 -8.0624 0.0000 0.0000 0.0000 -38.7648 -1.4164 -40.0701 13.2576 18.8732 69.9238 0.8815 -7.2166 -16.7803 3.6163 11.6315 34.4404 0.0000 0.0000 0.0000 14.1089 -5.4471 -63.1423 -4.6530 -12.9821 39.3014 2.1716 -28.4420 3.8968 -8.9291 -16.7618 55.8445 -3.9702 -3.1721 18.6038 9.1838 -4.5857 5.5817 13.4328 -2.4779 -3.1924 -13.7074 -7.0679 -3.8561 3.0585 -9.4737 29.7375 2.3714 -5.6087 11.1085 0.0000 -0.0000 0.0000 -85.0860 -12.7875 16.8133 22.1873 -33.1880 -6.6881 -0.0000 0.0000 -8.2440 20.7358 29.8182 10.6612 -7.1250 0.0000 -0.0000 -12.2927 61.0629 -4.8520 0.0000 -0.0000 0.0000 73.4861 -14.3388 -3.7115 -22.1007 33.0907 -6.6407 0.0000 -0.0000 -8.2993 -21.2943 21.1318 -7.9987 7.1250 -0.0000 -0.0000 4.6545 -7.5113 4.0197
0.00 0.00 0.00 1.3357 -15.2659 -11.0751 0.0000 0.0000 0.0000 -47.7020 4.2553 -23.5115 9.8917 17.3485 59.1259 0.2969 -7.5984 -10.3379 2.8364 10.4254 30.3655 0.0000 0.0000 0.0000 23.6437 6.9896 -63.8261 -7.4912 -15.7319 50.7084 -0.0980 -8.4308 7.6811 -0.0856 -1.8875 5.1947 -7.3214 -5.4838 18.4335 7.5790 -8.3483 6.0989 14.0729 -4.5491 -1.3022 -10.3375 -2.7084 -4.7280 4.4861 -3.8950 27.8753 2.9576 -2.5131 9.8950 -0.0000 0.0000 0.0000 -105.8778 -34.8319 66.3985 14.3649 -23.2539 -2.9706 -0.0000 0.0000 -5.6988 17.6501 30.6446 9.2121 -7.1250 0.0000 -0.0000 -16.2899 61.1131 -6.4916 -0.0000 0.0000 0.0000 83.3640 -16.9741 -10.8267 -17.7647 27.8549 -4.4388 0.0000 -0.0000 -11.5614 -21.4084 19.5970 -7.4914 7.1250 -0.0000 -0.0000 4.4579 -9.1036 3.7079
0.00 0.00 0.00 0.4088 -9.1079 -7.9427 0.0000 0.0000 0.0000 -48.5121 9.7062 -16.2783 7.4655 15.7116 50.6135 -0.3549 -10.5570 2.6261 2.7584 10.2934 29.9320 0.0000 0.0000 0.0000 24.0504 14.0704 -57.3930 -9.7344 -17.2577 58.5968 -1.2679 0.7040 21.5517 -0.0913 -1.9484 5.3630 -6.8932 -9.7292 14.3784 8.3258 -13.7240 2.5368 14.7201 -7.1068 -1.3950 -10.7110 1.0545 -5.1848 4.8643 1.3710 29.4362 3.7008 -0.1441 10.0806 -0.0000 0.0000 0.0000 -118.0394 -37.5132 99.7962 17.8714 -27.9922 -4.4887 -0.0000 -0.0000 0.5958 13.4284 30.0431 6.8165 -7.1250 0.0000 -0.0000 -20.3645 59.5436 -7.4200 -0.0000 0.0000 0.0000 81.0156 -19.2187 -12.4203 -15.6013 24.9770 -3.4759 0.0000 -0.0000 -11.5810 -18.0782 19.2243 -6.1347 7.1250 -0.0000 -0.0000 6.5896 -9.9413 5.3897
